<svg width="80" height="75" viewBox="0 0 80 75" fill="none" xmlns="http://www.w3.org/2000/svg">
<rect x="12" y="11.1017" width="56" height="51.8081" rx="8" fill="#E2E2EA"/>
<path fill-rule="evenodd" clip-rule="evenodd" d="M48 30.5298V40.7064C49.1046 40.7064 50 39.878 50 38.8561V29.6047C50 28.5828 49.1046 27.7544 48 27.7544H38C36.8954 27.7544 36 28.5828 36 29.6047H47C47.5523 29.6047 48 30.0189 48 30.5298ZM45 43.4818V33.3053C45 32.7943 44.5523 32.3801 44 32.3801H33C33 31.3582 33.8954 30.5298 35 30.5298H45C46.1046 30.5298 47 31.3582 47 32.3801V41.6316C47 42.6534 46.1046 43.4818 45 43.4818ZM42 33.3053H32C30.8954 33.3053 30 34.1337 30 35.1555V44.407C30 45.4289 30.8954 46.2573 32 46.2573H42C43.1046 46.2573 44 45.4289 44 44.407V35.1555C44 34.1337 43.1046 33.3053 42 33.3053ZM32 44.407V35.1555H42V44.407H32Z" fill="#9A9AB0"/>
</svg>
